{
    "asset" : {
        "generator" : "Khronos glTF Blender I/O v1.8.19",
        "version" : "2.0"
    },
    "scene" : 0,
    "scenes" : [
        {
            "name" : "Scene",
            "nodes" : [
                0,
                1,
                2
            ]
        }
    ],
    "nodes" : [
        {
            "mesh" : 0,
            "name" : "gun"
        },
        {
            "mesh" : 1,
            "name" : "hammer_path"
        },
        {
            "mesh" : 2,
            "name" : "hammer"
        }
    ],
    "materials" : [
        {
            "doubleSided" : true,
            "emissiveFactor" : [
                1,
                1,
                1
            ],
            "emissiveTexture" : {
                "index" : 0
            },
            "name" : "gunmat",
            "pbrMetallicRoughness" : {
                "baseColorTexture" : {
                    "index" : 1
                },
                "metallicFactor" : 0,
                "roughnessFactor" : 0.4000000059604645
            }
        }
    ],
    "meshes" : [
        {
            "name" : "Cube",
            "primitives" : [
                {
                    "attributes" : {
                        "POSITION" : 0,
                        "NORMAL" : 1,
                        "TEXCOORD_0" : 2
                    },
                    "indices" : 3,
                    "material" : 0
                }
            ]
        },
        {
            "name" : "Cube.001",
            "primitives" : [
                {
                    "attributes" : {
                        "POSITION" : 4,
                        "NORMAL" : 5,
                        "TEXCOORD_0" : 6
                    },
                    "indices" : 7,
                    "material" : 0
                }
            ]
        },
        {
            "name" : "Cube.002",
            "primitives" : [
                {
                    "attributes" : {
                        "POSITION" : 8,
                        "NORMAL" : 9,
                        "TEXCOORD_0" : 10
                    },
                    "indices" : 11,
                    "material" : 0
                }
            ]
        }
    ],
    "textures" : [
        {
            "sampler" : 0,
            "source" : 0
        },
        {
            "sampler" : 0,
            "source" : 1
        }
    ],
    "images" : [
        {
            "bufferView" : 4,
            "mimeType" : "image/jpeg",
            "name" : "gunemission_texture"
        },
        {
            "bufferView" : 5,
            "mimeType" : "image/jpeg",
            "name" : "guntexture"
        }
    ],
    "accessors" : [
        {
            "bufferView" : 0,
            "componentType" : 5126,
            "count" : 801,
            "max" : [
                0.2389979362487793,
                0.664258599281311,
                2.2396857738494873
            ],
            "min" : [
                -0.2389979362487793,
                -1.694998860359192,
                -3.106126308441162
            ],
            "type" : "VEC3"
        },
        {
            "bufferView" : 1,
            "componentType" : 5126,
            "count" : 801,
            "type" : "VEC3"
        },
        {
            "bufferView" : 2,
            "componentType" : 5126,
            "count" : 801,
            "type" : "VEC2"
        },
        {
            "bufferView" : 3,
            "componentType" : 5123,
            "count" : 1248,
            "type" : "SCALAR"
        },
        {
            "bufferView" : 6,
            "componentType" : 5126,
            "count" : 52,
            "max" : [
                0.24489659070968628,
                0.16021987795829773,
                0.9109066724777222
            ],
            "min" : [
                0.1614173799753189,
                -0.024691995233297348,
                -0.7493665218353271
            ],
            "type" : "VEC3"
        },
        {
            "bufferView" : 7,
            "componentType" : 5126,
            "count" : 52,
            "type" : "VEC3"
        },
        {
            "bufferView" : 8,
            "componentType" : 5126,
            "count" : 52,
            "type" : "VEC2"
        },
        {
            "bufferView" : 9,
            "componentType" : 5123,
            "count" : 78,
            "type" : "SCALAR"
        },
        {
            "bufferView" : 10,
            "componentType" : 5126,
            "count" : 48,
            "max" : [
                0.34490466117858887,
                0.105348140001297,
                0.8635812997817993
            ],
            "min" : [
                0.19333747029304504,
                -0.03466713801026344,
                0.6314288377761841
            ],
            "type" : "VEC3"
        },
        {
            "bufferView" : 11,
            "componentType" : 5126,
            "count" : 48,
            "type" : "VEC3"
        },
        {
            "bufferView" : 12,
            "componentType" : 5126,
            "count" : 48,
            "type" : "VEC2"
        },
        {
            "bufferView" : 13,
            "componentType" : 5123,
            "count" : 78,
            "type" : "SCALAR"
        }
    ],
    "bufferViews" : [
        {
            "buffer" : 0,
            "byteLength" : 9612,
            "byteOffset" : 0
        },
        {
            "buffer" : 0,
            "byteLength" : 9612,
            "byteOffset" : 9612
        },
        {
            "buffer" : 0,
            "byteLength" : 6408,
            "byteOffset" : 19224
        },
        {
            "buffer" : 0,
            "byteLength" : 2496,
            "byteOffset" : 25632
        },
        {
            "buffer" : 0,
            "byteLength" : 4499,
            "byteOffset" : 28128
        },
        {
            "buffer" : 0,
            "byteLength" : 26163,
            "byteOffset" : 32628
        },
        {
            "buffer" : 0,
            "byteLength" : 624,
            "byteOffset" : 58792
        },
        {
            "buffer" : 0,
            "byteLength" : 624,
            "byteOffset" : 59416
        },
        {
            "buffer" : 0,
            "byteLength" : 416,
            "byteOffset" : 60040
        },
        {
            "buffer" : 0,
            "byteLength" : 156,
            "byteOffset" : 60456
        },
        {
            "buffer" : 0,
            "byteLength" : 576,
            "byteOffset" : 60612
        },
        {
            "buffer" : 0,
            "byteLength" : 576,
            "byteOffset" : 61188
        },
        {
            "buffer" : 0,
            "byteLength" : 384,
            "byteOffset" : 61764
        },
        {
            "buffer" : 0,
            "byteLength" : 156,
            "byteOffset" : 62148
        }
    ],
    "samplers" : [
        {
            "magFilter" : 9729,
            "minFilter" : 9987
        }
    ],
    "buffers" : [
        {
            "byteLength" : 62304,
            "uri" : "data:application/octet-stream;base64,"
        }
    ]
}
